<svg width="188" height="45" viewBox="0 0 188 45" fill="none" xmlns="http://www.w3.org/2000/svg">
<rect width="188" height="45" rx="9" fill="white"/>
<path d="M33.5939 19.7981C35.364 20.5714 37.4163 19.7412 38.1778 17.9439C38.9393 16.1465 38.1217 14.0626 36.3517 13.2893C34.5816 12.516 32.5294 13.3462 31.7678 15.1436C31.0063 16.9409 31.8239 19.0248 33.5939 19.7981ZM33.5939 19.7981L26.7756 16.8195M24 23.3206L27.2298 24.7316C28.9999 25.5049 31.0521 24.6747 31.8137 22.8774C32.5752 21.08 31.7576 18.9961 29.9876 18.2228L26.7578 16.8118M40 22.5969L36.7702 21.1859C35.0001 20.4126 32.9479 21.2428 32.1863 23.0402L32.1883 32" stroke="black" stroke-width="3"/>
<path d="M54.376 28V16.64H58.616C59.9173 16.64 60.9307 16.9547 61.656 17.584C62.3813 18.2027 62.744 19.0667 62.744 20.176C62.744 20.912 62.5787 21.552 62.248 22.096C61.9173 22.6293 61.4427 23.04 60.824 23.328C60.216 23.6053 59.48 23.744 58.616 23.744H56.104V28H54.376ZM56.104 22.176H58.568C59.3467 22.176 59.9387 22.0107 60.344 21.68C60.7493 21.3387 60.952 20.8373 60.952 20.176C60.952 19.5253 60.7493 19.04 60.344 18.72C59.9387 18.3893 59.3467 18.224 58.568 18.224H56.104V22.176ZM65.9402 28.192C65.0549 28.192 64.3456 27.9893 63.8122 27.584C63.2896 27.1787 63.0282 26.608 63.0282 25.872C63.0282 25.136 63.2469 24.5653 63.6842 24.16C64.1322 23.744 64.8202 23.4453 65.7483 23.264L68.6762 22.704C68.6762 22.0427 68.5216 21.552 68.2123 21.232C67.9029 20.9013 67.4442 20.736 66.8362 20.736C66.2922 20.736 65.8656 20.8587 65.5562 21.104C65.2469 21.3387 65.0336 21.6907 64.9162 22.16L63.1722 22.048C63.3322 21.1947 63.7269 20.5227 64.3562 20.032C64.9962 19.5413 65.8229 19.296 66.8362 19.296C67.9882 19.296 68.8629 19.6053 69.4603 20.224C70.0683 20.832 70.3723 21.6907 70.3723 22.8V26.112C70.3723 26.3147 70.4043 26.4587 70.4683 26.544C70.5429 26.6187 70.6603 26.656 70.8203 26.656H71.1243V28C71.0709 28.0107 70.9856 28.0213 70.8682 28.032C70.7509 28.0427 70.6283 28.048 70.5002 28.048C70.1376 28.048 69.8229 27.9893 69.5563 27.872C69.3003 27.7547 69.1083 27.5627 68.9803 27.296C68.8523 27.0187 68.7882 26.6507 68.7882 26.192L68.9643 26.272C68.8789 26.6453 68.6923 26.976 68.4043 27.264C68.1269 27.552 67.7696 27.7813 67.3323 27.952C66.9056 28.112 66.4416 28.192 65.9402 28.192ZM66.2122 26.848C66.7242 26.848 67.1616 26.752 67.5243 26.56C67.8869 26.3573 68.1696 26.08 68.3723 25.728C68.5749 25.376 68.6762 24.976 68.6762 24.528V23.984L66.1802 24.464C65.6683 24.56 65.3056 24.7147 65.0922 24.928C64.8896 25.1307 64.7882 25.392 64.7882 25.712C64.7882 26.0747 64.9109 26.3573 65.1562 26.56C65.4123 26.752 65.7643 26.848 66.2122 26.848ZM71.8456 30.4V29.008H72.8856C73.1736 29.008 73.387 28.9653 73.5256 28.88C73.6643 28.7947 73.771 28.6507 73.8456 28.448L74.1176 27.744H73.5896L70.5176 19.488H72.3096L74.6456 26.176L76.8696 19.488H78.6776L75.2856 28.992C75.115 29.4827 74.859 29.84 74.5176 30.064C74.187 30.288 73.723 30.4 73.1256 30.4H71.8456ZM84.244 28L81.652 19.488H83.428L85.252 26.144L87.124 19.488H88.724L90.596 26.144L92.436 19.488H94.212L91.62 28H89.716L87.924 21.92L86.132 28H84.244ZM94.8094 28V19.488H96.5054V28H94.8094ZM94.7774 18.256V16.56H96.5374V18.256H94.7774ZM100.789 28C99.9783 28 99.381 27.8133 98.997 27.44C98.613 27.0667 98.421 26.4853 98.421 25.696V17.488H100.117V25.568C100.117 25.9627 100.202 26.2347 100.373 26.384C100.544 26.5333 100.805 26.608 101.157 26.608H102.373V28H100.789ZM97.125 20.88V19.488H102.373V20.88H97.125ZM103.194 28V16.64H104.89V21.408L104.682 21.376C104.778 20.896 104.954 20.5067 105.21 20.208C105.466 19.8987 105.78 19.6693 106.154 19.52C106.527 19.3707 106.938 19.296 107.386 19.296C108.004 19.296 108.527 19.4347 108.954 19.712C109.38 19.9787 109.7 20.3573 109.914 20.848C110.138 21.3387 110.25 21.8987 110.25 22.528V28H108.554V22.976C108.554 22.208 108.42 21.6427 108.154 21.28C107.898 20.9067 107.492 20.72 106.938 20.72C106.319 20.72 105.823 20.9173 105.45 21.312C105.076 21.696 104.89 22.2613 104.89 23.008V28H103.194ZM115.113 28V16.64H119.193C120.559 16.64 121.588 16.8853 122.281 17.376C122.975 17.8667 123.321 18.6453 123.321 19.712C123.321 20.192 123.22 20.6133 123.017 20.976C122.815 21.3387 122.516 21.6267 122.122 21.84C121.737 22.0427 121.279 22.1493 120.745 22.16L120.729 22.096C121.7 22.1173 122.452 22.384 122.985 22.896C123.529 23.3973 123.801 24.0587 123.801 24.88C123.801 25.9147 123.455 26.6933 122.761 27.216C122.068 27.7387 121.081 28 119.801 28H115.113ZM116.841 26.448H119.753C120.468 26.448 121.023 26.304 121.417 26.016C121.823 25.7173 122.025 25.2853 122.025 24.72C122.025 24.1653 121.823 23.7333 121.417 23.424C121.023 23.1147 120.468 22.96 119.753 22.96H116.841V26.448ZM116.841 21.488H119.161C119.919 21.488 120.505 21.344 120.921 21.056C121.337 20.768 121.545 20.3627 121.545 19.84C121.545 19.2853 121.343 18.8747 120.937 18.608C120.543 18.3307 119.951 18.192 119.161 18.192H116.841V21.488ZM128.595 28.192C127.784 28.192 127.075 28.0107 126.467 27.648C125.859 27.2853 125.389 26.768 125.059 26.096C124.728 25.424 124.563 24.64 124.563 23.744C124.563 22.8373 124.728 22.0533 125.059 21.392C125.389 20.7307 125.859 20.2187 126.467 19.856C127.075 19.4827 127.784 19.296 128.595 19.296C129.405 19.296 130.115 19.4827 130.723 19.856C131.331 20.2187 131.8 20.7307 132.131 21.392C132.461 22.0533 132.627 22.8373 132.627 23.744C132.627 24.64 132.461 25.424 132.131 26.096C131.8 26.768 131.331 27.2853 130.723 27.648C130.115 28.0107 129.405 28.192 128.595 28.192ZM128.595 26.72C129.32 26.72 129.88 26.4587 130.275 25.936C130.669 25.4027 130.867 24.672 130.867 23.744C130.867 22.816 130.669 22.0907 130.275 21.568C129.88 21.0347 129.32 20.768 128.595 20.768C127.88 20.768 127.32 21.0347 126.915 21.568C126.52 22.0907 126.323 22.816 126.323 23.744C126.323 24.672 126.52 25.4027 126.915 25.936C127.32 26.4587 127.88 26.72 128.595 26.72ZM136.341 28.192C135.487 28.192 134.805 27.9093 134.293 27.344C133.791 26.768 133.541 25.9733 133.541 24.96V19.488H135.237V24.528C135.237 25.296 135.37 25.8613 135.637 26.224C135.903 26.5867 136.309 26.768 136.853 26.768C137.471 26.768 137.951 26.5707 138.293 26.176C138.645 25.7707 138.821 25.2053 138.821 24.48V19.488H140.517V28H138.933L138.901 25.776L139.141 25.872C138.991 26.6187 138.677 27.1947 138.197 27.6C137.717 27.9947 137.098 28.192 136.341 28.192ZM142.116 28V19.488H143.668L143.732 21.76L143.524 21.648C143.62 21.0933 143.801 20.6453 144.068 20.304C144.334 19.9627 144.66 19.712 145.044 19.552C145.428 19.3813 145.844 19.296 146.292 19.296C146.932 19.296 147.46 19.44 147.876 19.728C148.302 20.0053 148.622 20.3893 148.836 20.88C149.06 21.36 149.172 21.9093 149.172 22.528V28H147.476V23.04C147.476 22.5387 147.422 22.1173 147.316 21.776C147.209 21.4347 147.033 21.1733 146.788 20.992C146.542 20.8107 146.222 20.72 145.828 20.72C145.23 20.72 144.745 20.9173 144.372 21.312C143.998 21.7067 143.812 22.2827 143.812 23.04V28H142.116ZM153.423 28C152.613 28 152.015 27.8133 151.631 27.44C151.247 27.0667 151.055 26.4853 151.055 25.696V17.488H152.751V25.568C152.751 25.9627 152.837 26.2347 153.007 26.384C153.178 26.5333 153.439 26.608 153.791 26.608H155.007V28H153.423ZM149.759 20.88V19.488H155.007V20.88H149.759ZM156.23 30.4V29.008H157.27C157.558 29.008 157.771 28.9653 157.91 28.88C158.049 28.7947 158.155 28.6507 158.23 28.448L158.502 27.744H157.974L154.902 19.488H156.694L159.03 26.176L161.254 19.488H163.062L159.67 28.992C159.499 29.4827 159.243 29.84 158.902 30.064C158.571 30.288 158.107 30.4 157.51 30.4H156.23Z" fill="#040404"/>
</svg>
